<?xml version="1.0" encoding="UTF-8"?>
<svg xmlns="http://www.w3.org/2000/svg" xmlns:xlink="http://www.w3.org/1999/xlink" width="16px" height="16px" viewBox="0 0 16 16" version="1.1">
  <title>新-首页</title>
  <g id="服务号在线支付" stroke="none" stroke-width="1" fill="none" fill-rule="evenodd">
    <g id="首页（新增二维码）" transform="translate(-1712.000000, -16.000000)" fill="#FFFFFF" fill-rule="nonzero">
      <g id="编组" transform="translate(1712.000000, 16.000000)">
        <g id="编组-2" transform="translate(1.000000, 1.000000)">
          <path d="M0.417405697,9.62151754 C0.360076036,9.62151754 0.302018843,9.60971694 0.246377061,9.58480619 C0.0360616022,9.49006674 -0.0577029484,9.24305448 0.0368036867,9.03269537 L2.0186784,4.62574693 C2.08609405,4.47585347 2.23515714,4.37941856 2.39951322,4.37941856 C2.56387457,4.37941856 2.71294477,4.47584866 2.78036259,4.62574693 L4.76203359,9.03270992 C4.85649657,9.24306903 4.76273202,9.49008129 4.55241656,9.58482074 C4.34160638,9.67833792 4.09484148,9.58525726 4.0003494,9.37520371 L2.39951322,5.81479901 L0.798429676,9.37520371 C0.728877449,9.52990649 0.576633735,9.62151754 0.417405697,9.62151754 L0.417405697,9.62151754 Z" id="路径"></path>
          <path d="M3.68731066,8.18113165 L1.31378998,8.18113165 C1.08333639,8.18113165 0.896258357,7.99403907 0.896258357,7.76358548 C0.896258357,7.53310279 1.08333639,7.34605386 1.31378998,7.34605386 L3.68731066,7.34605386 C3.91776426,7.34605386 4.10485684,7.53308824 4.10485684,7.76358548 C4.10485684,7.99403907 3.91776426,8.18113165 3.68731066,8.18113165 Z M5.99079894,9.69054594 C5.76034535,9.69054594 5.57331097,9.50346791 5.57331097,9.27302887 L5.57331097,4.75233781 C5.57331097,4.52188422 5.76034535,4.33480619 5.99079894,4.33480619 L7.55925987,4.33480619 C8.4737116,4.33480619 9.21790588,5.0787531 9.21790588,5.99319028 C9.21790588,6.90762746 8.4737116,7.65179264 7.55927442,7.65179264 L6.40833057,7.65179264 L6.40833057,9.27301432 C6.40833057,9.50345336 6.22129619,9.69054594 5.99079894,9.69054594 Z M6.40833057,6.81674395 L7.55925987,6.81674395 C8.0134883,6.81674395 8.38284263,6.44744781 8.38284263,5.99320483 C8.38284263,5.53922377 8.0134883,5.16988398 7.55927442,5.16988398 L6.40833057,5.16988398 L6.40833057,6.81674395 L6.40833057,6.81674395 Z M10.9254131,9.69054594 C10.694974,9.69054594 10.5078814,9.50346791 10.5078814,9.27302887 L10.5078814,4.75233781 C10.5078814,4.52188422 10.694974,4.33480619 10.9254131,4.33480619 L12.4938885,4.33480619 C13.4083257,4.33480619 14.1524763,5.0787531 14.1524763,5.99319028 C14.1524763,6.90762746 13.4083257,7.65179264 12.4938885,7.65179264 L11.3429592,7.65179264 L11.3429592,9.27301432 C11.3429592,9.50345336 11.1559249,9.69054594 10.9254131,9.69054594 Z M11.3429592,6.81674395 L12.4938885,6.81674395 C12.9481024,6.81674395 13.3174131,6.44744781 13.3174131,5.99320483 C13.3174131,5.53922377 12.948117,5.16988398 12.4938885,5.16988398 L11.3429592,5.16988398 L11.3429592,6.81674395 L11.3429592,6.81674395 Z M11.6528304,3.63603911 C11.4223186,3.63603911 11.2352842,3.44896108 11.2352842,3.21850749 L11.2352842,1.72720879 C11.2352842,1.23535232 10.8349952,0.835063247 10.3431532,0.835063247 L3.77531315,0.835063247 C3.28341302,0.835063247 2.8831676,1.23535232 2.8831676,1.72720879 L2.8831676,3.21850749 C2.8831676,3.44896108 2.69608957,3.63603911 2.46563598,3.63603911 C2.23518238,3.63603911 2.04810435,3.44896108 2.04810435,3.21850749 L2.04810435,1.72720879 C2.04810435,0.774896205 2.82295691,1.64574237e-13 3.77531315,1.64574237e-13 L10.3431387,1.64574237e-13 C11.2954367,1.64574237e-13 12.0703475,0.774896205 12.0703475,1.72720879 L12.0703475,3.21850749 C12.0703475,3.44896108 11.8832549,3.63603911 11.6528159,3.63603911 L11.6528304,3.63603911 Z M10.3431532,13.8512533 L3.77531315,13.8512533 C2.82295691,13.8512533 2.04810435,13.0764007 2.04810435,12.1237971 L2.04810435,10.7176199 C2.04810435,10.4871663 2.23518238,10.3000883 2.46563598,10.3000883 C2.69608957,10.3000883 2.8831676,10.4871663 2.8831676,10.7176199 L2.8831676,12.1237971 C2.8831676,12.6159446 3.28341302,13.0161901 3.77531315,13.0161901 L10.3431387,13.0161901 C10.8349806,13.0161901 11.2352697,12.6159446 11.2352697,12.1237971 L11.2352697,10.7176199 C11.2352697,10.4871663 11.4223041,10.3000883 11.6528159,10.3000883 C11.8832549,10.3000883 12.0703475,10.4871663 12.0703475,10.7176199 L12.0703475,12.1237971 C12.0703475,13.0764007 11.2954367,13.8512533 10.3431387,13.8512533 L10.3431532,13.8512533 Z" id="形状"></path>
        </g>
      </g>
    </g>
  </g>
</svg>
