<?xml version="1.0" encoding="UTF-8"?>
<svg xmlns="http://www.w3.org/2000/svg" xmlns:xlink="http://www.w3.org/1999/xlink" width="16px" height="16px" viewBox="0 0 16 16" version="1.1">
  <title>3.1 二维码</title>
  <g id="服务号在线支付" stroke="none" stroke-width="1" fill="none" fill-rule="evenodd">
    <g id="首页（新增二维码）" transform="translate(-1678.000000, -16.000000)" fill-rule="nonzero">
      <g id="3.1-二维码" transform="translate(1678.000000, 16.000000)">
        <rect id="矩形" fill="#000000" opacity="0" x="0" y="0" width="16" height="16"></rect>
        <path d="M9.4886307,11.0244454 C9.22062042,11.0244454 9.00195267,11.2355183 9.00195267,11.4958858 L9.00195267,13.1137009 C9.00195267,13.3740844 9.22063641,13.5860527 9.4886307,13.5860527 C9.75748842,13.5860527 9.97665183,13.3740844 9.97665183,13.1137009 L9.97665183,11.4959018 C9.97666781,11.2355343 9.75750441,11.0244454 9.4886307,11.0244454 M7.91429011,3.08101508 C7.87844242,2.41370752 7.3559007,1.86406417 6.68771373,1.79145739 L6.68771373,1.78138422 L3.16122469,1.78138422 C2.42714639,1.78138422 1.82282012,2.35881672 1.78382256,3.08101506 L1.78158408,6.4163537 C1.78158408,6.45848514 1.78897106,6.49994503 1.80221009,6.5380312 C1.91469383,7.20106966 2.48630628,7.68283902 3.16122469,7.68283902 L6.62003161,7.68283902 L6.68769773,7.67879377 L6.68769773,7.67319756 C7.30030639,7.60776992 7.79285244,7.14931275 7.89321639,6.54813636 C7.90891775,6.50040872 7.9169603,6.45850112 7.9169603,6.4163537 L7.9169603,3.14844136 L7.9169603,3.08101508 L7.91429011,3.08101508 Z M7.09148797,3.22509339 L7.09148797,6.23911389 C7.09148797,6.58148977 6.81183758,6.85957322 6.46765492,6.85957322 L3.2297862,6.85957322 C2.88605125,6.85957322 2.60641684,6.58148975 2.60641684,6.23911387 L2.60641684,3.22509339 C2.60641684,2.88268555 2.88605125,2.60418636 3.2297862,2.60418636 L6.46765492,2.60418636 C6.81183758,2.60418636 7.09148797,2.88270153 7.09148797,3.22509339 M7.75247981,9.73735008 C7.71661612,9.08843005 7.20888037,8.55380053 6.55906495,8.48253684 L6.55906495,8.47268752 L3.1258087,8.47268752 C2.41101333,8.47268752 1.82259628,9.0342108 1.78404642,9.73735008 L1.78113639,12.9841887 C1.78113639,13.0267678 1.78943477,13.0697947 1.80152256,13.1033879 C1.91111227,13.7491741 2.46836644,14.2188396 3.1258087,14.2188396 L6.49186252,14.2188396 L6.55908094,14.2152421 L6.55908094,14.2089743 C7.15557252,14.1448898 7.6346397,13.6985204 7.73143808,13.1146123 C7.74757114,13.0720172 7.75562969,13.0285427 7.75562969,12.9841887 L7.75562969,9.80504817 L7.7547343,9.73736606 L7.75247981,9.73736606 L7.75247981,9.73735008 Z M6.94896061,9.87898205 L6.94896061,12.8121134 C6.94896061,13.1442082 6.67783244,13.414425 6.3439628,13.414425 L3.19257944,13.414425 C2.8591575,13.414425 2.58801333,13.1442082 2.58801333,12.8121134 L2.58801333,9.87898205 C2.58801333,9.54735089 2.8591575,9.27668641 3.19257944,9.27668641 L6.3439628,9.27668641 C6.67783242,9.27668641 6.94896061,9.54735089 6.94896061,9.87898205 M11.3005062,9.00106528 C11.0320483,9.00106528 10.8133645,9.21258587 10.8133645,9.47295334 L10.8133645,11.0916958 C10.8133645,11.3516156 11.0320483,11.5635839 11.3005062,11.5635839 C11.5685005,11.5635839 11.787632,11.3516156 11.787632,11.0916958 L11.787632,9.47295334 C11.787632,9.21258586 11.5684846,9.00106528 11.3005062,9.00106528 M14.2183999,3.04918066 L14.2165931,3.04918066 C14.1802977,2.39846984 13.6712189,1.86248123 13.0195967,1.79080184 L13.0195967,1.78114439 L9.93455237,1.78114439 C9.21929333,1.78114439 8.6290695,2.34425061 8.58964022,3.04918066 L8.58738575,6.30474938 C8.58738575,6.34776022 8.59546028,6.39193827 8.60799578,6.42350086 C8.71736162,7.0710778 9.27575105,7.54141491 9.93455237,7.54141491 L12.9523783,7.54141491 L13.0195807,7.5375935 L13.0195807,7.53222114 C13.6174154,7.46701734 14.097362,7.01954473 14.1959671,6.43448541 C14.2112048,6.39035533 14.2188316,6.3468808 14.2188316,6.30473337 L14.2188316,3.11663892 L14.2183999,3.04918066 Z M13.4104038,3.19103648 L13.4104038,6.13155481 C13.4104038,6.46475291 13.1383322,6.73565723 12.8035992,6.73565723 L10.0026662,6.73565723 C9.66745347,6.73565723 9.39541391,6.46476888 9.39541391,6.1315548 L9.39541391,3.19103648 C9.39541391,2.85828609 9.66746945,2.58760561 10.0026662,2.58760561 L12.8035992,2.58760561 C13.1383322,2.58760561 13.4104038,2.85828608 13.4104038,3.19103648 M13.0890536,9.00060159 C12.8205956,9.00060159 12.6019119,9.21258587 12.6019119,9.47293734 L12.6019119,10.2818769 C12.6019119,10.5422284 12.8205956,10.7537649 13.0890536,10.7537649 C13.3574956,10.7537649 13.576643,10.5422443 13.576643,10.2818769 L13.576643,9.47293734 C13.576643,9.21258586 13.3574956,9.00060159 13.0890536,9.00060159 M13.0890536,11.4282197 C12.8205956,11.4282197 12.6019119,11.6397403 12.6019119,11.9001237 L12.6019119,13.1137009 C12.6019119,13.3745321 12.8205956,13.5860527 13.0890536,13.5860527 C13.3574956,13.5860527 13.576643,13.3745321 13.576643,13.1137009 L13.576643,11.9001237 C13.576643,11.6397402 13.3574956,11.4282197 13.0890536,11.4282197 M11.3005062,11.833353 C11.0320483,11.833353 10.8133645,12.0448736 10.8133645,12.3048093 L10.8133645,13.1141646 C10.8133645,13.3740844 11.0320483,13.5860527 11.3005062,13.5860527 C11.5685005,13.5860527 11.787632,13.3740844 11.787632,13.1141646 L11.787632,12.3048253 C11.787632,12.0448896 11.5684846,11.833353 11.3005062,11.833353 M9.4886307,9.00060159 C9.22062042,9.00060159 9.00195267,9.21258587 9.00195267,9.47293734 L9.00195267,9.87763895 C9.00195267,10.1375747 9.22063641,10.349543 9.4886307,10.349543 C9.75748842,10.349543 9.97665183,10.1375747 9.97665183,9.87763895 L9.97665183,9.47293734 C9.97666781,9.21258586 9.75750441,9.00060159 9.4886307,9.00060159" id="形状" fill="#FFFFFF"></path>
      </g>
    </g>
  </g>
</svg>
