<?xml version="1.0" encoding="UTF-8"?>
<svg xmlns="http://www.w3.org/2000/svg" xmlns:xlink="http://www.w3.org/1999/xlink" width="48px" height="48px" viewBox="0 0 48 48" version="1.1">
  <title>编组 3备份 4</title>
  <defs>
    <linearGradient x1="50%" y1="0%" x2="50%" y2="100%" id="linearGradient-1">
      <stop stop-color="#FFFFFF" offset="0%"></stop>
      <stop stop-color="#FFFFFF" stop-opacity="0.8" offset="100%"></stop>
    </linearGradient>
  </defs>
  <g id="服务号在线支付" stroke="none" stroke-width="1" fill="none" fill-rule="evenodd">
    <g id="首页（新增二维码）" transform="translate(-706.000000, -126.000000)">
      <g id="快捷服务" transform="translate(12.000000, 60.000000)">
        <g id="编组-3备份-6" transform="translate(694.000000, 66.000000)">
          <rect id="矩形" fill="#008FFF" x="0" y="0" width="48" height="48" rx="8"></rect>
          <g id="编组" transform="translate(10.000000, 12.000000)" fill="url(#linearGradient-1)" fill-rule="nonzero">
            <path d="M23.9448276,23.1724138 L5.40689655,23.1724138 C4.94344828,23.1724138 4.63448276,23.4813793 4.63448276,23.9448276 C4.63448276,24.4082759 4.94344828,24.7172414 5.40689655,24.7172414 L23.9448276,24.7172414 C24.4082759,24.7172414 24.7172414,24.4082759 24.7172414,23.9448276 C24.7172414,23.4813793 24.4082759,23.1724138 23.9448276,23.1724138 Z M26.1075862,0 L1.69931034,0 C0.772413793,0 0,0.772413793 0,1.69931034 L0,19.7737931 C0,20.8551724 0.772413793,21.6275862 1.69931034,21.6275862 L25.9531034,21.6275862 C26.88,21.6275862 27.6524138,20.8551724 27.6524138,19.9282759 L27.6524138,1.69931034 C27.8068966,0.772413793 27.0344828,0 26.1075862,0 Z M23.1724138,10.0413793 L18.8468966,10.0413793 L15.9117241,12.9765517 C15.7572414,13.1310345 15.4482759,13.2855172 15.1393103,13.1310345 C14.8303448,12.9765517 14.6758621,12.822069 14.6758621,12.5131034 L13.7489655,8.18758621 L11.4317241,17.1475862 C11.2772414,17.4565517 10.9682759,17.7655172 10.6593103,17.7655172 C10.3503448,17.7655172 10.0413793,17.4565517 9.88689655,17.1475862 L8.65103448,10.0413793 L4.63448276,10.0413793 C4.17103448,10.0413793 3.86206897,9.73241379 3.86206897,9.26896552 C3.86206897,8.80551724 4.17103448,8.49655172 4.63448276,8.49655172 L9.26896552,8.49655172 C9.57793103,8.49655172 9.88689655,8.80551724 10.0413793,9.11448276 L10.9682759,13.44 L13.2855172,4.48 C13.2855172,4.17103448 13.5944828,3.86206897 13.9034483,3.86206897 C14.2124138,3.86206897 14.5213793,4.17103448 14.6758621,4.48 L15.9117241,10.8137931 L17.92,8.80551724 C18.0744828,8.65103448 18.2289655,8.65103448 18.537931,8.65103448 L23.1724138,8.65103448 C23.6358621,8.65103448 23.9448276,8.96 23.9448276,9.42344828 C23.9448276,9.88689655 23.6358621,10.0413793 23.1724138,10.0413793 L23.1724138,10.0413793 Z" id="形状"></path>
          </g>
        </g>
      </g>
    </g>
  </g>
</svg>
