<?xml version="1.0" encoding="UTF-8"?>
<svg xmlns="http://www.w3.org/2000/svg" xmlns:xlink="http://www.w3.org/1999/xlink" width="48px" height="48px" viewBox="0 0 48 48" version="1.1">
  <title>编组 3备份 2</title>
  <defs>
    <linearGradient x1="50%" y1="0%" x2="50%" y2="100%" id="linearGradient-1">
      <stop stop-color="#FFFFFF" offset="0%"></stop>
      <stop stop-color="#FFFFFF" stop-opacity="0.8" offset="100%"></stop>
    </linearGradient>
  </defs>
  <g id="首页提示" stroke="none" stroke-width="1" fill="none" fill-rule="evenodd">
    <g id="首页（提示）" transform="translate(-52.000000, -166.000000)">
      <g id="快捷服务" transform="translate(12.000000, 100.000000)">
        <g id="编组-3备份-2" transform="translate(34.000000, 66.000000)">
          <rect id="矩形" fill="#F7B500" x="6" y="0" width="48" height="48" rx="8"></rect>
          <path d="M44.2761005,25.3572047 C42.9459602,23.3935893 42.7146314,21.2567138 43.4086177,19.0043315 C44.1604361,16.7519492 43.3507854,15.3658678 41.0374978,14.9038406 C38.7242102,14.4418135 36.9892445,13.1134854 35.9482651,10.9766099 C34.8494535,8.83973431 33.3458166,8.4354606 31.3795221,9.76378862 C29.4132276,11.0921166 27.2734366,11.3231302 25.0179812,10.6300895 C22.7625257,9.87929539 21.3745532,10.6878429 20.9118956,12.9979786 C20.4492381,15.3081143 19.1190977,17.0407161 16.9793067,18.0802772 C14.8395157,19.1775917 14.4346904,20.6791799 15.7648307,22.6427953 C17.0949711,24.6064107 17.3262998,26.7432862 16.6323136,28.9956685 C15.8804951,31.2480508 16.6901458,32.6341322 19.0034333,33.0961594 C21.316721,33.5581865 23.0516867,34.8865146 24.0926661,37.0233901 C25.1914777,39.1602657 26.6951147,39.5645394 28.6614091,38.2362114 C30.6277036,36.9078834 32.7674946,36.6768698 35.0229501,37.3699105 C37.2784055,38.1207046 38.666378,37.3121571 39.1290355,35.0020213 C39.591693,32.6918856 40.9218335,30.9592838 43.0616245,29.9197228 C45.1435834,28.8224083 45.5484087,27.3208201 44.2761005,25.3572047 Z M36.0639295,21.9497546 L29.3553954,28.6491481 C28.8927379,29.1111753 28.1987516,29.1111753 27.7360941,28.6491481 L23.2830155,24.2021369 C22.820358,23.7401098 22.820358,23.047069 23.2830155,22.5850419 C23.745673,22.1230147 24.4396592,22.1230147 24.9023167,22.5850419 L28.4879126,26.1657522 L34.386796,20.2749061 C34.8494535,19.812879 35.5434398,19.812879 36.0060973,20.2749061 C36.526587,20.7369333 36.526587,21.4877274 36.0639295,21.9497546 L36.0639295,21.9497546 Z" id="形状" fill="url(#linearGradient-1)" fill-rule="nonzero"></path>
        </g>
      </g>
    </g>
  </g>
</svg>
