<?xml version="1.0" encoding="UTF-8"?>
<svg xmlns="http://www.w3.org/2000/svg" xmlns:xlink="http://www.w3.org/1999/xlink" width="48px" height="48px" viewBox="0 0 48 48" version="1.1">
  <title>编组 3备份 4</title>
  <defs>
    <linearGradient x1="50%" y1="0%" x2="50%" y2="100%" id="linearGradient-1">
      <stop stop-color="#FFFFFF" offset="0%"></stop>
      <stop stop-color="#FFFFFF" stop-opacity="0.8" offset="100%"></stop>
    </linearGradient>
  </defs>
  <g id="首页提示" stroke="none" stroke-width="1" fill="none" fill-rule="evenodd">
    <g id="首页（提示）" transform="translate(-160.000000, -166.000000)">
      <g id="快捷服务" transform="translate(12.000000, 100.000000)">
        <g id="编组-3备份-4" transform="translate(148.000000, 66.000000)">
          <rect id="矩形" fill="#008FFF" x="0" y="0" width="48" height="48" rx="8"></rect>
          <g id="编组" transform="translate(9.000000, 9.000000)" fill="url(#linearGradient-1)" fill-rule="nonzero">
            <path d="M5.43745162,4.60687559 C5.04773167,4.21663808 4.41545123,4.21621852 4.02521372,4.60593847 C3.63497621,4.99565842 3.63455665,5.62793886 4.0242766,6.01817637 L5.43745162,7.42947712 C5.68955622,7.68191653 6.0571853,7.78068397 6.40185654,7.68857469 C6.74652778,7.5964654 7.01587742,7.32747299 7.10844406,6.9829243 C7.20101069,6.6383756 7.10273125,6.27061577 6.85062664,6.01817637 L5.43745162,4.60687559 L5.43745162,4.60687559 Z M24.4197282,4.60687559 L23.0084274,6.01817637 C22.8201434,6.20472262 22.7142193,6.45877888 22.7142193,6.72382674 C22.7142193,6.98887461 22.8201434,7.24293086 23.0084274,7.42947712 C23.1949737,7.61776113 23.4490299,7.7236853 23.7140778,7.7236853 C23.9791257,7.7236853 24.2331819,7.61776113 24.4197282,7.42947712 L25.8366517,6.01817637 C26.0249357,5.83163011 26.1308599,5.57757385 26.1308599,5.31252598 C26.1308599,5.0474781 26.0249357,4.79342184 25.8366517,4.60687559 C25.444771,4.21707365 24.8116089,4.21707365 24.4197282,4.60687559 L24.4197282,4.60687559 Z M2.94096737,12.512409 L0.941156035,12.512409 C0.413171169,12.5447666 0.00153517699,12.9824021 0.00153517699,13.5113776 C0.00153517699,14.040353 0.413171169,14.4779885 0.941156035,14.5103461 L2.94096737,14.5103461 C3.49268246,14.5103461 3.93993591,14.0630926 3.93993591,13.5113776 C3.93993591,12.9596625 3.49268246,12.512409 2.94096737,12.512409 L2.94096737,12.512409 Z M28.9216465,12.512409 L26.9199609,12.512409 C26.5630596,12.512409 26.2332665,12.7028037 26.0548141,13.0118882 C25.8763616,13.3209727 25.8763616,13.7017824 26.0548141,14.0108669 C26.2332665,14.3199515 26.5630596,14.5103461 26.9199609,14.5103461 L28.9216465,14.5103461 C29.4733616,14.5103461 29.920615,14.0630926 29.920615,13.5113776 C29.920615,12.9596625 29.4733616,12.512409 28.9216465,12.512409 L28.9216465,12.512409 Z M13.9296214,1.02333363 L13.9296214,3.01939649 C13.9296214,3.37629779 14.120016,3.70609088 14.4291005,3.88454335 C14.7381851,4.06299581 15.1189947,4.06299581 15.4280793,3.88454335 C15.7371638,3.70609088 15.9275584,3.37629779 15.9275584,3.01939649 L15.9275584,1.02333363 C15.9275584,0.666432342 15.7371638,0.336639248 15.4280793,0.15818678 C15.1189947,-0.020265688 14.7381851,-0.020265688 14.4291005,0.15818678 C14.120016,0.336639248 13.9296214,0.666432342 13.9296214,1.02333363 L13.9296214,1.02333363 Z M5.93787301,15.0126417 C6.03781636,19.9075697 10.0345159,23.8234987 14.9304642,23.8234987 C19.8264124,23.8234987 23.8231119,19.9075697 23.9230553,15.0126417 C23.9230553,10.0461708 19.8969351,6.02005058 14.9304642,6.02005058 C9.9639932,6.02005058 5.93787301,10.0461708 5.93787301,15.0126417 L5.93787301,15.0126417 Z M12.9306528,28.9982014 C12.9306528,29.5492271 13.3785956,29.9971699 13.9296214,29.9971699 L15.9275584,29.9971699 C16.3020027,30.025295 16.6606857,29.8414605 16.8565024,29.5210618 C17.052319,29.2006631 17.052319,28.7976139 16.8565024,28.4772152 C16.6606857,28.1568164 16.3020027,27.972982 15.9275584,28.0011071 L13.9296214,28.0011071 C13.3786374,28.0011061 12.9316866,28.4472183 12.9306528,28.9982014 L12.9306528,28.9982014 Z M10.9327157,26.0012957 C10.9327157,26.5523215 11.3806585,27.0021385 11.9316843,27.0021385 L17.9254955,27.0021385 C18.4772037,27.0021385 18.9244464,26.5548781 18.9244464,26.00317 C18.9244464,25.4514618 18.4772037,25.0042014 17.9254955,25.0042014 L11.9316843,25.0042014 C11.3807003,25.0042014 10.9337495,25.4503127 10.9327157,26.0012957 L10.9327157,26.0012957 Z" id="形状"></path>
          </g>
        </g>
      </g>
    </g>
  </g>
</svg>
