<?xml version="1.0" encoding="UTF-8"?>
<svg xmlns="http://www.w3.org/2000/svg" xmlns:xlink="http://www.w3.org/1999/xlink" width="16px" height="16px" viewBox="0 0 16 16" version="1.1">
  <title>消息</title>
  <g id="服务号在线支付" stroke="none" stroke-width="1" fill="none" fill-rule="evenodd">
    <g id="首页（新增二维码）" transform="translate(-1746.000000, -16.000000)" fill-rule="nonzero">
      <g id="消息" transform="translate(1746.000000, 16.000000)">
        <rect id="矩形" fill="#000000" opacity="0" x="0" y="0" width="16" height="16"></rect>
        <path d="M8,3.27272727 C8.86798124,3.27272727 9.70041223,3.61753147 10.3141676,4.23128689 C10.9279231,4.84504232 11.2727273,5.67747331 11.2727273,6.54545455 L11.2727273,10.4290909 C11.2721487,10.7320659 11.3676313,11.0274253 11.5454545,11.2727273 L12.0618182,12 L3.93818181,12 L4.45454545,11.2727273 C4.63236871,11.0274253 4.7278513,10.7320659 4.72727273,10.4290909 L4.72727273,6.54545455 C4.72727273,5.67747331 5.07207693,4.84504232 5.68583235,4.23128689 C6.29958777,3.61753147 7.13201876,3.27272727 8,3.27272727 M8,2.18181819 C5.59003018,2.18181819 3.63636364,4.13548473 3.63636364,6.54545455 L3.63636364,10.4290909 C3.63587416,10.504876 3.61171847,10.5786144 3.56727273,10.64 L2.64,11.9418182 C2.48207842,12.1636208 2.46127798,12.455056 2.58609809,12.6970386 C2.7109182,12.9390211 2.96044873,13.0909091 3.23272727,13.0909091 L12.7672727,13.0909091 C13.0395513,13.0909091 13.2890818,12.9390211 13.4139019,12.6970386 C13.538722,12.455056 13.5179216,12.1636208 13.36,11.9418182 L12.4327273,10.64 C12.3882815,10.5786144 12.3641258,10.504876 12.3636364,10.4290909 L12.3636364,6.54545455 C12.3636364,4.13548473 10.4099698,2.18181819 8,2.18181819 Z M8.36363636,1.81818181 L7.63636364,1.81818181 C7.33515347,1.81813083 7.09100141,1.57393745 7.09100141,1.27272727 C7.09100141,0.971517098 7.33515347,0.727323714 7.63636364,0.727272734 L8.36363636,0.727272734 C8.66484653,0.727323714 8.90899859,0.971517098 8.90899859,1.27272727 C8.90899859,1.57393745 8.66484653,1.81813083 8.36363636,1.81818181 L8.36363636,1.81818181 Z M9.27272727,14.9090909 L7.09090909,14.9090909 C6.78966287,14.9090909 6.54545455,14.6648826 6.54545455,14.3636364 C6.54545455,14.0623901 6.78966287,13.8181818 7.09090909,13.8181818 L9.27272727,13.8181818 C9.57397349,13.8181818 9.81818181,14.0623901 9.81818181,14.3636364 C9.81818181,14.6648826 9.57397349,14.9090909 9.27272727,14.9090909 L9.27272727,14.9090909 Z" id="形状" fill="#FFFFFF"></path>
      </g>
    </g>
  </g>
</svg>
