<?xml version="1.0" encoding="UTF-8"?>
<svg xmlns="http://www.w3.org/2000/svg" xmlns:xlink="http://www.w3.org/1999/xlink" width="28px" height="12px" viewBox="0 0 28 12" version="1.1">
  <title>编组</title>
  <g id="首页提示" stroke="none" stroke-width="1" fill="none" fill-rule="evenodd">
    <g id="首页（提示）" transform="translate(-1003.000000, -166.000000)" fill="#FF3445" fill-rule="nonzero">
      <g id="公告" transform="translate(687.000000, 100.000000)">
        <g id="编组" transform="translate(20.000000, 62.000000)">
          <g transform="translate(296.000000, 4.000000)">
            <path d="M5.99482048,0 L22.1808358,0 C25.1605989,0 27.5761742,2.66206257 27.5761742,5.94588317 C27.5761742,9.22970377 25.1605989,11.8917663 22.1808358,11.8917663 L0,11.8917663 L0,6.60653686 C0,2.95774656 2.68388113,0 5.99482048,0 Z" id="路径" fill-opacity="0.1"></path>
            <path d="M4.89477093,9.2491516 L5.69328101,5.10949561 L7.60263134,9.2491516 L8.62354927,9.2491516 L9.78474599,3.23720307 L8.67810214,3.23720307 L7.87959205,7.37685905 L5.97383861,3.23720307 L4.94872431,3.23720307 L3.78872655,9.2491516 L4.89537041,9.2491516 L4.89477093,9.2491516 Z M13.8138648,9.2491516 L14.0284794,8.14982386 L11.1293842,8.14982386 L11.3979522,6.76707571 L14.1453784,6.76707571 L14.3593935,5.66774797 L11.6083704,5.66774797 L11.8655482,4.3365308 L14.7220801,4.3365308 L14.9360952,3.23720307 L10.9693225,3.23720307 L9.80812579,9.2491516 L13.8138648,9.2491516 Z M17.4107571,9.2491516 L19.3512805,4.94168957 L19.6666081,9.2491516 L20.9524971,9.2491516 L23.6957269,3.23720307 L22.5387266,3.23720307 L20.5202705,7.83601337 L20.2043435,3.23720307 L19.0551364,3.23720307 L16.9935176,7.86640344 L16.6859833,3.23720307 L15.5865333,3.23720307 L16.0697158,9.2491516 L17.4101576,9.2491516 L17.4107571,9.2491516 Z" id="形状"></path>
          </g>
        </g>
      </g>
    </g>
  </g>
</svg>
