<?xml version="1.0" encoding="UTF-8"?>
<svg xmlns="http://www.w3.org/2000/svg" xmlns:xlink="http://www.w3.org/1999/xlink" width="48px" height="48px" viewBox="0 0 48 48" version="1.1">
  <title>编组 3备份 3</title>
  <defs>
    <linearGradient x1="50%" y1="0%" x2="50%" y2="100%" id="linearGradient-1">
      <stop stop-color="#FFFFFF" offset="0%"></stop>
      <stop stop-color="#FFFFFF" stop-opacity="0.8" offset="100%"></stop>
    </linearGradient>
  </defs>
  <g id="首页提示" stroke="none" stroke-width="1" fill="none" fill-rule="evenodd">
    <g id="首页（提示）" transform="translate(-268.000000, -166.000000)">
      <g id="快捷服务" transform="translate(12.000000, 100.000000)">
        <g id="编组-3备份-3" transform="translate(256.000000, 66.000000)">
          <rect id="矩形" fill="#F7B500" x="0" y="0" width="48" height="48" rx="8"></rect>
          <g id="编组" transform="translate(10.000000, 10.000000)" fill="url(#linearGradient-1)" fill-rule="nonzero">
            <path d="M18.6265625,15.666 C20.7125625,16.058 22.4905625,16.716 24.2125625,17.556 L24.2125625,17.556 L24.2825625,17.598 C24.6185625,17.766 24.8705625,18.074 24.9825625,18.424 L24.9825625,18.424 L27.3765625,25.648 L27.5165625,26.096 C27.7685625,26.852 27.3485625,27.678 26.6205625,27.93 C26.4665625,27.972 26.2985625,28 26.1445625,28 L26.1445625,28 L1.4765625,28 C1.3085625,28 1.1545625,27.986 1.0005625,27.93 C0.2445625,27.692 -0.1754375,26.866 0.0765625,26.11 L0.0765625,26.11 L0.2165625,25.662 L2.6105625,18.438 C2.7225625,18.088 2.9745625,17.78 3.3105625,17.612 L3.3105625,17.612 L3.3805625,17.57 C5.1025625,16.73 6.8805625,16.072 8.9665625,15.68 L8.9665625,15.68 L12.1585625,25.018 C12.2115355,24.3066486 12.2757575,23.4736026 12.3412786,22.6366042 L12.3806676,22.1348728 C12.5447743,20.0501987 12.7045625,18.088 12.7045625,18.088 L12.7045625,18.088 L12.2425625,16.772 C12.2425625,16.772 12.0885625,16.268 12.5365625,16.268 L12.5365625,16.268 L15.0565625,16.268 C15.5045625,16.268 15.3505625,16.772 15.3505625,16.772 L15.3505625,16.772 L14.8885625,18.088 C14.8885625,18.088 15.0613894,20.2103141 15.232161,22.3855039 L15.2714538,22.8874674 C15.3300994,23.6389949 15.3868868,24.3777838 15.4345625,25.018 L15.4345625,25.018 Z M13.7825625,2.79776202e-13 C17.6185625,2.79776202e-13 20.7265625,3.22 20.7405625,7.196 C20.7405625,11.172 17.6325625,14.392 13.7965625,14.392 C9.9605625,14.392 6.8525625,11.172 6.8525625,7.196 C6.8525625,3.22 9.9605625,2.79776202e-13 13.7825625,2.79776202e-13 Z" id="形状结合"></path>
          </g>
        </g>
      </g>
    </g>
  </g>
</svg>
