<?xml version="1.0" encoding="UTF-8"?>
<svg xmlns="http://www.w3.org/2000/svg" xmlns:xlink="http://www.w3.org/1999/xlink" width="48px" height="48px" viewBox="0 0 48 48" version="1.1">
  <title>编组 3备份 2</title>
  <defs>
    <linearGradient x1="50%" y1="0%" x2="50%" y2="100%" id="linearGradient-1">
      <stop stop-color="#FFFFFF" offset="0%"></stop>
      <stop stop-color="#FFFFFF" stop-opacity="0.8" offset="100%"></stop>
    </linearGradient>
  </defs>
  <g id="首页提示" stroke="none" stroke-width="1" fill="none" fill-rule="evenodd">
    <g id="首页（提示）" transform="translate(-52.000000, -251.000000)">
      <g id="快捷服务" transform="translate(12.000000, 100.000000)">
        <g id="编组-3备份-8" transform="translate(34.000000, 151.000000)">
          <rect id="矩形" fill="#F7B500" x="6" y="0" width="48" height="48" rx="8"></rect>
          <g id="学院配置" transform="translate(14.000000, 8.000000)" fill-rule="nonzero">
            <rect id="矩形" fill="#000000" opacity="0" x="0" y="0" width="32" height="32"></rect>
            <path d="M24.775,14.76875 L24.775,25.240625 C24.775,27.303125 23.0875,28.990625 21.025,28.990625 L21.025,28.990625 L10.96875,28.990625 C8.90625,28.990625 7.21875,27.303125 7.21875,25.240625 L7.21875,25.240625 L7.21875,14.784375 L15.190625,18.603125 C15.690625,18.84375 16.271875,18.84375 16.771875,18.603125 L16.771875,18.603125 L24.775,14.76875 Z M16.8375,3.528125 L29.596875,9.640625 C30.1,9.88125 30.1,10.596875 29.596875,10.840625 L16.840625,16.953125 C16.296875,17.215625 15.6625,17.215625 15.11875,16.953125 L5.08690625,12.14825 L5.08794631,15.9154494 C5.59325807,16.1380176 5.95747748,16.6220213 6.00927789,17.196134 L6.015625,17.3375 C6.015625,17.972755 5.63423823,18.5189324 5.08794631,18.7595506 L5.0875,20.13125 C5.0875,20.478125 4.809375,20.75625 4.4625,20.75625 C4.11875,20.75625 3.8375,20.475 3.8375,20.13125 L3.83705369,18.7595506 C3.29076177,18.5189324 2.909375,17.972755 2.909375,17.3375 C2.909375,16.702245 3.29076177,16.1560676 3.83705369,15.9154494 L3.83690625,11.54925 L2.35625,10.840625 C1.853125,10.6 1.853125,9.884375 2.35625,9.640625 L15.115625,3.528125 C15.659375,3.265625 16.29375,3.265625 16.8375,3.528125 Z" id="形状结合" fill="url(#linearGradient-1)"></path>
          </g>
        </g>
      </g>
    </g>
  </g>
</svg>
