<?xml version="1.0" encoding="UTF-8"?>
<svg xmlns="http://www.w3.org/2000/svg" xmlns:xlink="http://www.w3.org/1999/xlink" width="48px" height="48px" viewBox="0 0 48 48" version="1.1">
  <title>编组 3备份 2</title>
  <defs>
    <linearGradient x1="50%" y1="0%" x2="50%" y2="100%" id="linearGradient-1">
      <stop stop-color="#FFFFFF" offset="0%"></stop>
      <stop stop-color="#FFFFFF" stop-opacity="0.8" offset="100%"></stop>
    </linearGradient>
    <linearGradient x1="50%" y1="0%" x2="50%" y2="100%" id="linearGradient-2">
      <stop stop-color="#FFFFFF" offset="0%"></stop>
      <stop stop-color="#FFFFFF" stop-opacity="0.8" offset="100%"></stop>
    </linearGradient>
  </defs>
  <g id="服务号在线支付" stroke="none" stroke-width="1" fill="none" fill-rule="evenodd">
    <g id="首页（新增二维码）" transform="translate(-292.000000, -590.000000)" fill-rule="nonzero">
      <g id="营销工具" transform="translate(12.000000, 524.000000)">
        <g id="编组-3备份-9" transform="translate(276.000000, 66.000000)">
          <g id="编组" transform="translate(4.000000, 4.000000)">
            <path d="M47.5977293,37.9246692 C47.5977293,38.865812 46.8081654,39.6552406 45.8666165,39.6552406 L2.04554887,39.6552406 C1.10413534,39.6552406 0.314571429,38.865812 0.314571429,37.9246692 L0.314571429,2.39368421 C0.314571429,1.45254135 1.10413534,0.662706767 2.04554887,0.662706767 L45.8666165,0.662706767 C46.8081654,0.662706767 47.5977293,1.45254135 47.5977293,2.39368421 L47.5977293,37.9246692 L47.5977293,37.9246692 Z" id="路径" fill="#FF4D00"></path>
            <path d="M5.38590226,6.82532331 L5.38590226,19.4930902 C5.38590226,20.045375 5.83361751,20.4930902 6.38590226,20.4930902 L23.1839925,20.4930902 C23.7362772,20.4930902 24.1839925,20.045375 24.1839925,19.4930902 L24.1839925,6.82532331 C24.1839925,6.27303856 23.7362772,5.82532331 23.1839925,5.82532331 L6.38590226,5.82532331 C5.83361751,5.82532331 5.38590226,6.27303856 5.38590226,6.82532331 Z" id="路径" fill-opacity="0.5" fill="#FFFFFF"></path>
            <path d="M29.0406617,14.9057143 L42.1943609,14.9057143 C42.7466457,14.9057143 43.1943609,15.3534295 43.1943609,15.9057143 L43.1943609,19.4931579 C43.1943609,20.0454426 42.7466457,20.4931579 42.1943609,20.4931579 L29.0406617,20.4931579 C28.4883769,20.4931579 28.0406617,20.0454426 28.0406617,19.4931579 L28.0406617,15.9057143 C28.0406617,15.3534295 28.4883769,14.9057143 29.0406617,14.9057143 Z" id="路径" fill="url(#linearGradient-1)"></path>
            <path d="M29.0406617,5.82532331 L42.1943609,5.82532331 C42.7466457,5.82532331 43.1943609,6.27303856 43.1943609,6.82532331 L43.1943609,10.783797 C43.1943609,11.3360817 42.7466457,11.783797 42.1943609,11.783797 L29.0406617,11.783797 C28.4883769,11.783797 28.0406617,11.3360817 28.0406617,10.783797 L28.0406617,6.82532331 C28.0406617,6.27303856 28.4883769,5.82532331 29.0406617,5.82532331 Z" id="路径" fill="url(#linearGradient-2)"></path>
            <path d="M42.6499774,23.3781654 L6.35565414,23.3781654 C5.80336939,23.3781654 5.35565414,23.8258807 5.35565414,24.3781654 L5.35565414,35.4061053 C5.35565414,35.95839 5.80336939,36.4061053 6.35565414,36.4061053 L42.6499774,36.4061053 C43.2022622,36.4061053 43.6499774,35.95839 43.6499774,35.4061053 L43.6499774,24.3781654 C43.6499774,23.8258807 43.2022622,23.3781654 42.6499774,23.3781654 Z" id="路径" fill-opacity="0.5" fill="#FFFFFF"></path>
          </g>
        </g>
      </g>
    </g>
  </g>
</svg>
