<?xml version="1.0" encoding="UTF-8"?>
<svg xmlns="http://www.w3.org/2000/svg" xmlns:xlink="http://www.w3.org/1999/xlink" width="48px" height="48px" viewBox="0 0 48 48" version="1.1">
  <title>编组 3</title>
  <defs>
    <linearGradient x1="50%" y1="0%" x2="50%" y2="100%" id="linearGradient-1">
      <stop stop-color="#FFFFFF" offset="0%"></stop>
      <stop stop-color="#FFFFFF" stop-opacity="0.8" offset="100%"></stop>
    </linearGradient>
  </defs>
  <g id="首页提示" stroke="none" stroke-width="1" fill="none" fill-rule="evenodd">
    <g id="首页（提示）" transform="translate(-376.000000, -166.000000)">
      <g id="快捷服务" transform="translate(12.000000, 100.000000)">
        <g id="编组-3" transform="translate(364.000000, 66.000000)">
          <rect id="矩形" fill="#008FFF" x="0" y="0" width="48" height="48" rx="8"></rect>
          <g id="编组" transform="translate(8.000000, 11.000000)" fill="url(#linearGradient-1)" fill-rule="nonzero">
            <path d="M16.2679745,24.5658738 C15.860401,24.9793651 15.1954126,24.9861026 14.7795449,24.5809541 L14.7614485,24.5643658 L0.453221967,10.468772 C0.0247627544,10.0049862 -0.112707485,9.34257681 0.0958179251,8.74659717 L3.26268932,0.96514176 C3.53201898,0.401153667 4.08916559,0.0304947953 4.71341803,0 L26.3265612,0 C26.9558432,0.031724574 27.5159329,0.408987053 27.781814,0.980222099 L30.9486854,8.76167751 C31.1556837,9.35655869 31.0176583,10.0171092 30.5897733,10.4793282 L16.2679745,24.5658738 Z M21.8461922,4.22249519 C21.1993892,4.25773741 20.6045625,4.5879496 20.2325959,5.11826738 L16.0779622,11.7626652 C15.9802605,11.9839696 15.7611473,12.1267516 15.5192356,12.1267516 C15.2773239,12.1267516 15.0582108,11.9839696 14.960509,11.7626652 L10.8073834,5.12731559 C10.4386089,4.5951768 9.84606395,4.26166184 9.19981916,4.22249519 L7.08857156,4.22249519 C6.50797847,4.22249519 6.2878055,4.62212421 6.60298461,5.10771115 L14.9499528,18.096408 C15.0498397,18.3215001 15.2729758,18.4666011 15.5192356,18.4666011 C15.7654954,18.4666011 15.9886315,18.3215001 16.0885184,18.096408 L24.4385027,5.10771115 C24.7551898,4.62212421 24.5335088,4.22249519 23.9544238,4.22249519 L21.8461922,4.22249519 Z" id="形状"></path>
          </g>
        </g>
      </g>
    </g>
  </g>
</svg>
