<?xml version="1.0" standalone="no"?><!DOCTYPE svg PUBLIC "-//W3C//DTD SVG 1.1//EN" "http://www.w3.org/Graphics/SVG/1.1/DTD/svg11.dtd" [<!ENTITY nbsp " ">]><svg data-noselect="" viewBox="116.00003051758 63.09866469808 569 471.35807673107" width="569" ref="svg_canvas" height="471.35807673107" preserveAspectRatio="none" version="1.1" xmlns="http://www.w3.org/2000/svg" style="background: #ffffff;">
    <def></def>
    <g id="shape_dv4zsesX3V" ref="shape_dv4zsesX3V" key="shape_dv4zsesX3V" transform="translate(196.00003051758,143.09866469808) rotate(0,204.5,155.67903836554) scale(1,1)" style="cursor:move;display:inline;opacity:1;" filter="">
            <g style="display:inline"><rect fill="rgba(0,0,0,0)" width="429" height="331.35807673107" x="-10" y="-10"></rect><svg version="1.1" id="图层_1" xmlns="http://www.w3.org/2000/svg" xmlns:xlink="http://www.w3.org/1999/xlink" x="0px" y="0px" width="409" height="311.35807673107" viewBox="17.899999618530273 36.79999923706055 164.20001220703125 125" style="enable-background:new 0 0 200 200;" xml:space="preserve" class="style-removed" preserveAspectRatio="none" data-parent="shape_dv4zsesX3V">

<g>
	<g>
		<g>
			<path d="M50.6,53.9c3.8,0.7,8-1.2,10.1-4.5C56.9,48.6,52.2,50.3,50.6,53.9L50.6,53.9L50.6,53.9z" fill="#188DC1" stroke-width="0"></path>
			<path d="M44.2,60.5c3.9,0.4,7.8-2,9.6-5.5C50,54.6,45.5,56.7,44.2,60.5L44.2,60.5L44.2,60.5z" fill="#188DC1" stroke-width="0"></path>
			<path d="M41.4,68.1c3.9-0.3,7.4-3.4,8.5-7C46.1,61.2,42,64.1,41.4,68.1L41.4,68.1L41.4,68.1z" fill="#188DC1" stroke-width="0"></path>
			<path d="M38.5,76.8c3.7-1.3,6.3-5.1,6.5-8.9C41.3,69,38,72.9,38.5,76.8L38.5,76.8L38.5,76.8z" fill="#188DC1" stroke-width="0"></path>
			<path d="M36.8,87.1c4.4-1.5,7.6-6.1,7.8-10.8C40.3,77.7,36.3,82.4,36.8,87.1L36.8,87.1L36.8,87.1z" fill="#188DC1" stroke-width="0"></path>
			<path d="M37.8,97.1c4-2.4,6.2-7.6,5.3-12.2C39.1,87.2,36.2,92.6,37.8,97.1L37.8,97.1L37.8,97.1z" fill="#188DC1" stroke-width="0"></path>
			<path d="M40.4,107.3c4.1-3.1,5.9-9.1,4.5-14C40.7,96.2,38.1,102.5,40.4,107.3L40.4,107.3L40.4,107.3z" fill="#188DC1" stroke-width="0"></path>
			<path d="M45.1,117.2c3.4-3.9,3.8-10.1,1.4-14.6C43.1,106.3,41.9,112.9,45.1,117.2L45.1,117.2L45.1,117.2z" fill="#188DC1" stroke-width="0"></path>
			<path d="M51.3,41c-4.3,2.3-5.9,8.4-4.4,12.9C50.7,50.9,52.6,45.6,51.3,41L51.3,41L51.3,41z" fill="#188DC1" stroke-width="0"></path>
			<path d="M42.3,48.1c-3.8,3.7-3.7,10.4-0.9,14.6C44.4,58.6,45,52.5,42.3,48.1L42.3,48.1L42.3,48.1z" fill="#188DC1" stroke-width="0"></path>
			<path d="M36.4,56.6c-3.8,4.2-3.2,11.3,0,15.7C39.5,67.7,39.6,61.1,36.4,56.6L36.4,56.6L36.4,56.6z" fill="#188DC1" stroke-width="0"></path>
			<path d="M30.4,66.9c-2.4,4.8-0.1,11.2,4,14.4C36,76.3,34.4,70.2,30.4,66.9L30.4,66.9L30.4,66.9z" fill="#188DC1" stroke-width="0"></path>
			<path d="M26.2,77.2c-1.1,5.8,3.3,11.9,8.5,14.1C35,85.5,31.5,79.6,26.2,77.2L26.2,77.2L26.2,77.2z" fill="#188DC1" stroke-width="0"></path>
			<path d="M25.3,90.8c0.4,6,6.5,10.9,12.2,11.6C36.2,96.6,31.2,91.6,25.3,90.8L25.3,90.8L25.3,90.8z" fill="#188DC1" stroke-width="0"></path>
			<path d="M29.9,104.3c5.4,0.8,10,5.4,11.2,10.7C35.8,114.3,30.3,109.8,29.9,104.3L29.9,104.3L29.9,104.3z" fill="#188DC1" stroke-width="0"></path>
			<path d="M60.4,39c-4.2,1.4-7.3,5.7-7.6,10.1C57,47.9,60.8,43.5,60.4,39L60.4,39L60.4,39z" fill="#188DC1" stroke-width="0"></path>
		</g>
		<g>
			<path d="M149.4,53.9c-3.8,0.7-8-1.2-10.1-4.5C143.1,48.6,147.8,50.3,149.4,53.9L149.4,53.9L149.4,53.9z" fill="#188DC1" stroke-width="0"></path>
			<path d="M155.8,60.5c-3.9,0.4-7.8-2-9.6-5.5C150,54.6,154.5,56.7,155.8,60.5L155.8,60.5L155.8,60.5z" fill="#188DC1" stroke-width="0"></path>
			<path d="M158.6,68.1c-3.9-0.3-7.4-3.4-8.5-7C153.9,61.2,158,64.1,158.6,68.1L158.6,68.1L158.6,68.1z" fill="#188DC1" stroke-width="0"></path>
			<path d="M161.5,76.8c-3.7-1.3-6.3-5.1-6.5-8.9C158.7,69,162,72.9,161.5,76.8L161.5,76.8L161.5,76.8z" fill="#188DC1" stroke-width="0"></path>
			<path d="M163.2,87.1c-4.4-1.5-7.6-6.1-7.8-10.8C159.7,77.7,163.7,82.4,163.2,87.1L163.2,87.1L163.2,87.1z" fill="#188DC1" stroke-width="0"></path>
			<path d="M162.2,97.1c-4-2.4-6.2-7.6-5.3-12.2C160.9,87.2,163.8,92.6,162.2,97.1L162.2,97.1L162.2,97.1z" fill="#188DC1" stroke-width="0"></path>
			<path d="M159.6,107.3c-4.1-3.1-5.9-9.1-4.5-14C159.3,96.2,161.9,102.5,159.6,107.3L159.6,107.3L159.6,107.3z" fill="#188DC1" stroke-width="0"></path>
			<path d="M154.9,117.2c-3.4-3.9-3.8-10.1-1.4-14.6C156.9,106.3,158.1,112.9,154.9,117.2L154.9,117.2L154.9,117.2z" fill="#188DC1" stroke-width="0"></path>
			<path d="M148.7,41c4.3,2.3,5.9,8.4,4.4,12.9C149.3,50.9,147.4,45.6,148.7,41L148.7,41L148.7,41z" fill="#188DC1" stroke-width="0"></path>
			<path d="M157.7,48.1c3.8,3.7,3.7,10.4,0.9,14.6C155.6,58.6,155,52.5,157.7,48.1L157.7,48.1L157.7,48.1z" fill="#188DC1" stroke-width="0"></path>
			<path d="M163.6,56.6c3.8,4.2,3.2,11.3,0,15.7C160.5,67.7,160.4,61.1,163.6,56.6L163.6,56.6L163.6,56.6z" fill="#188DC1" stroke-width="0"></path>
			<path d="M169.6,66.9c2.4,4.8,0.1,11.2-4,14.4C164,76.3,165.6,70.2,169.6,66.9L169.6,66.9L169.6,66.9z" fill="#188DC1" stroke-width="0"></path>
			<path d="M173.8,77.2c1.1,5.8-3.3,11.9-8.5,14.1C165,85.5,168.5,79.6,173.8,77.2L173.8,77.2L173.8,77.2z" fill="#188DC1" stroke-width="0"></path>
			<path d="M174.7,90.8c-0.4,6-6.5,10.9-12.2,11.6C163.8,96.6,168.8,91.6,174.7,90.8L174.7,90.8L174.7,90.8z" fill="#188DC1" stroke-width="0"></path>
			<path d="M170.1,104.3c-5.4,0.8-10,5.4-11.2,10.7C164.2,114.3,169.7,109.8,170.1,104.3L170.1,104.3L170.1,104.3z" fill="#188DC1" stroke-width="0"></path>
			<path d="M139.6,39c4.2,1.4,7.3,5.7,7.6,10.1C143,47.9,139.2,43.5,139.6,39L139.6,39L139.6,39z" fill="#188DC1" stroke-width="0"></path>
		</g>
	</g>
	<g>
		<path d="M100,50.4L100,50.4l1.7,3.4l3.8,0.7l-2.7,2.7l0.5,3.9l-3.4-1.7L96.6,61l0.6-3.7l-2.7-2.8l3.7-0.6L100,50.4
			L100,50.4z" fill="#DAA51F" stroke-width="0"></path>
	</g>
	<path d="M100,140.2c-28.5,0-51.7-23.2-51.7-51.7S71.5,36.8,100,36.8s51.7,23.2,51.7,51.7S128.5,140.2,100,140.2z
		 M100,39.6c-27,0-48.9,21.9-48.9,48.9S73,137.4,100,137.4s48.9-21.9,48.9-48.9S127,39.6,100,39.6z" fill="#188DC1" stroke-width="0"></path>
	<path d="M100,133.9c-25,0-45.4-20.3-45.4-45.4c0-25,20.3-45.4,45.4-45.4c25,0,45.3,20.3,45.3,45.4
		C145.3,113.5,125,133.9,100,133.9z M100,44.6c-24.2,0-43.9,19.7-43.9,43.9c0,24.2,19.7,43.9,43.9,43.9c24.2,0,43.8-19.7,43.8-43.9
		C143.8,64.3,124.2,44.6,100,44.6z" fill="#188DC1" stroke-width="0"></path>
	<g>
		<path d="M144,149.5c10.8,1.1,16.9,2.7,16.9,2.7l6.1-31.6c-7.4-1.8-14.9-3.1-22-4c-63.3-9.1-112.1,4-112.1,4l6.1,31.6
			c0,0,7.4-1.9,20.5-3C78.9,147,110,145.2,144,149.5z" fill="#188DC1" stroke-width="0"></path>
	</g>
	<g>
		<g>
			<polygon points="144.6,155.5 163.5,144.4 177.7,161.8 			" fill="#188DC1" stroke-width="0"></polygon>
			<polygon points="182.1,137.9 163.1,149 148.9,131.6 			" fill="#188DC1" stroke-width="0"></polygon>
		</g>
		<g>
			<polygon points="55.4,155.5 36.5,144.4 22.3,161.8 			" fill="#188DC1" stroke-width="0"></polygon>
			<polygon points="17.9,137.9 36.9,149 51.1,131.6 			" fill="#188DC1" stroke-width="0"></polygon>
		</g>
	</g>
	<g>
		<g>
			<path d="M81.6,61.6c0,0,17.6,4.6,17.6,15.3s0,27.8,0,27.8s-6.6-10.2-17.6-12.3C81.3,86.3,81.6,61.6,81.6,61.6z" fill="#188DC1" stroke-width="0"></path>
			<path d="M79.7,68.1l-7.3,0.5V98c0,0,10.8-3.2,24.1,7.3c-3.7-4.6-4.3-7.3-17-10.8C79.5,89.8,79.7,68.1,79.7,68.1z" fill="#188DC1" stroke-width="0"></path>
			<path d="M70.3,75.1c0,0-4.5,0.3-5.1,2c0,4.6,0,29.2,0,29.2s15.3-5.1,26.9-1.7c-4-2.4-8.4-5-21.8-3.6V75.1z" fill="#188DC1" stroke-width="0"></path>
		</g>
		<g>
			<path d="M118.4,61.6c0,0-17.6,4.6-17.6,15.3s0,27.8,0,27.8s6.6-10.2,17.6-12.3C118.7,86.3,118.4,61.6,118.4,61.6z" fill="#188DC1" stroke-width="0"></path>
			<path d="M120.3,68.1l7.3,0.5V98c0,0-10.8-3.2-24.1,7.3c3.7-4.6,4.3-7.3,17-10.8C120.5,89.8,120.3,68.1,120.3,68.1z" fill="#188DC1" stroke-width="0"></path>
			<path d="M129.7,75.1c0,0,4.5,0.3,5.1,2c0,4.6,0,29.2,0,29.2s-15.3-5.1-26.9-1.7c4-2.4,8.4-5,21.8-3.6V75.1z" fill="#188DC1" stroke-width="0"></path>
		</g>
	</g>
</g>
</svg></g>
        </g><g id="shape_hnmP99hjtI" ref="shape_hnmP99hjtI" key="shape_hnmP99hjtI" transform="translate(251.55109901412024,327.79771299716) rotate(0,149.24914751801,49.511957525008) scale(1,1)" style="cursor:move;display:inline;opacity:1;" filter="">
            <g style="display:inline"><svg xmlns="http://www.w3.org/2000/svg" version="1.1" xmlns:xlink="http://www.w3.org/1999/xlink" width="541.8977256778096" height="467.07504256149855" viewBox="0 0 541.8977256778096 467.07504256149855" preserveAspectRatio="none" data-parent="shape_hnmP99hjtI"><rect fill="rgba(0,0,0,0)" width="297.89772567780955" height="98.1550425614985" x="61" y="184.46"></rect><rect width="297.89772567780955" height="98.1550425614985" fill="rgba(0,0,0,0)"></rect><g transform="translate(148.94886283890477, 95.77)"><path d="M59.17-26.54L33.67-26.54L24.70-21.59L53.92-21.59L53.92-17.45L34.10-17.45L31.90-10.19L50.02-10.19Q51.55-10.19 52.67-9.06Q53.80-7.93 53.80-6.34L53.80-6.34L53.80 9.70L31.17 9.70L31.17 5.61L38.49 5.61L38.49-4.82Q38.49-6.10 37.21-6.10L37.21-6.10L15.55-6.10L18.36-17.45L17.20-17.45L2.62-9.39L2.62-14.27L24.89-26.54L2.07-26.54L2.07-30.56L18.42-30.56L18.42-38.43L7.50-38.43L7.50-42.58L18.42-42.58L18.42-48.37L33.73-48.37L33.73-42.58L44.59-42.58L44.59-38.43L33.73-38.43L33.73-31.41L56.55-43.98L56.55-39.16L40.99-30.56L59.17-30.56L59.17-26.54Z" transform="translate(-30.5, -31.11) rotate(-7.529577464788732, 30.5, 731.983397301638)  " fill="rgb(255, 255, 255)" stroke="rgb(255, 255, 255)" stroke-width="0.102" data-glyph-w="66" data-glyph-h="62.22" data-glyph-ascender="52.46" data-glyph-descender="-9.76"></path><path d="M40.63 5.79L59.66 5.79L59.66 9.82L1.83 9.82L1.83 5.79L24.64 5.79L24.64-11.71L6.04-11.71L6.04-15.86L24.64-15.86L24.64-32.76L17.57-32.76L15.80-21.53L2.56-21.53L6.04-45.57L19.64-45.57L18.24-36.84L24.64-36.84L24.64-48.68L40.63-48.68L40.63-36.84L56.91-36.84L56.91-32.76L40.63-32.76L40.63-15.86L55.69-15.86L55.69-11.71L40.63-11.71L40.63 5.79Z" transform="translate(-30.5, -31.11) rotate(-2.5098591549295777, 30.5, 731.983397301638)  " fill="rgb(255, 255, 255)" stroke="rgb(255, 255, 255)" stroke-width="0.102" data-glyph-w="66" data-glyph-h="62.22" data-glyph-ascender="52.46" data-glyph-descender="-9.76"></path><path d="M19.64-32.76L19.64-18.91L22.63-19.52L22.63-15.37L19.64-14.76L19.64 9.58L2.20 9.58L2.20 5.25L5.31 5.25L5.31-11.77L0.98-10.86L0.98-15.01L5.31-15.92L5.31-32.76L0.98-32.76L0.98-36.91L5.31-36.91L5.31-48.25L19.64-48.25L19.64-36.91L22.57-36.91L22.57-32.76L19.64-32.76ZM59.72 9.52L49.35 9.52L48.19 7.44L47.15 9.52L36.17 9.52L42.52-2.50L36.23-13.54L36.23-19.95L46.42-19.95L46.42-15.01L47.76-12.50L48.74-14.40L48.74-20.19Q48.74-21.47 47.46-21.47L47.46-21.47L35.14-21.47L35.14 9.52L23.55 9.52L23.55-46.85L53.62-46.85Q55.14-46.85 56.27-45.72Q57.40-44.59 57.40-43.01L57.40-43.01L57.40-28.30L41.60-28.30L41.60-32.82L44.84-32.82L44.84-41.36Q44.84-42.64 43.55-42.64L43.55-42.64L35.14-42.64L35.14-25.62L54.66-25.62Q56.18-25.62 57.31-24.49Q58.44-23.36 58.44-21.78L58.44-21.78L58.44-13.54L53.13-2.68L59.72 9.52Z" transform="translate(-30.5, -31.11) rotate(2.509859154929577, 30.5, 731.983397301638)  " fill="rgb(255, 255, 255)" stroke="rgb(255, 255, 255)" stroke-width="0.102" data-glyph-w="66" data-glyph-h="62.22" data-glyph-ascender="52.46" data-glyph-descender="-9.76"></path><path d="M55.08-44.10Q56.61-44.10 57.74-42.97Q58.87-41.85 58.87-40.26L58.87-40.26L58.87-27.63L28.43-14.82L1.22-14.82L23.42-24.70L20.25-34.71L33.12-34.71L34.77-29.71L44.77-34.16L44.77-38.67Q44.77-39.95 43.49-39.95L43.49-39.95L20.68-39.95L17.51-28.24L3.90-28.24L9.39-48.43L22.94-48.43L21.78-44.10L55.08-44.10ZM54.66-13.18Q56.18-13.18 57.31-12.05Q58.44-10.92 58.44-9.33L58.44-9.33L58.44 9.82L6.65 9.82L6.65-13.18L54.66-13.18ZM43.07 5.86L43.07-7.75Q43.07-9.03 41.78-9.03L41.78-9.03L22.02-9.03L22.02 5.86L43.07 5.86Z" transform="translate(-30.5, -31.11) rotate(7.529577464788732, 30.5, 731.983397301638)  " fill="rgb(255, 255, 255)" stroke="rgb(255, 255, 255)" stroke-width="0.102" data-glyph-w="66" data-glyph-h="62.22" data-glyph-ascender="52.46" data-glyph-descender="-9.76"></path></g></svg></g>
        </g><g id="shape_JiOAq73Cqh" ref="shape_JiOAq73Cqh" key="shape_JiOAq73Cqh" transform="translate(294.999977111815,372.64463043213) rotate(0,121.89672851562,60.8896484375) scale(1,1)" style="cursor:move;display:inline;opacity:1;" filter="">
            <g style="display:inline"><svg xmlns="http://www.w3.org/2000/svg" version="1.1" xmlns:xlink="http://www.w3.org/1999/xlink" width="245" height="121.779296875" viewBox="0 0 245 121.779296875" preserveAspectRatio="none" data-parent="shape_JiOAq73Cqh"><rect fill="rgba(0,0,0,0)" width="177" height="17" x="17" y="52.3896484375"></rect><g data-width="176.640625" transform="translate(17.1796875, 0)"><path d="M2.86 0L1.25 0L1.25-12.17L2.86-12.17L2.86-6.13L8.90-12.17L11.08-12.17L5.98-7.24L11.31 0L9.18 0L4.85-6.16L2.86-4.22L2.86 0Z" transform="translate(0 66.3896484375) " fill="rgb(24, 141, 193)" stroke="rgb(24, 141, 193)" stroke-width="0.028" data-glyph-w="11.3388671875" data-glyph-h="18.9921875" data-glyph-ascender="15.3896484375" data-glyph-descender="-3.6025390625"></path><path d="M1.69 0L-0.02 0L4.65-12.17L6.38-12.17L11.36 0L9.53 0L8.11-3.69L3.02-3.69L1.69 0ZM4.82-8.57L3.49-5.00L7.61-5.00L6.34-8.37Q5.76-9.90 5.48-10.89L5.48-10.89Q5.25-9.72 4.82-8.57L4.82-8.57Z" transform="translate(11.3388671875 66.3896484375) " fill="rgb(24, 141, 193)" stroke="rgb(24, 141, 193)" stroke-width="0.028" data-glyph-w="11.3388671875" data-glyph-h="18.9921875" data-glyph-ascender="15.3896484375" data-glyph-descender="-3.6025390625"></path><path d="M0.82-5.93L0.82-5.93Q0.82-8.96 2.45-10.67Q4.08-12.38 6.65-12.38L6.65-12.38Q8.33-12.38 9.69-11.58Q11.04-10.77 11.75-9.33Q12.46-7.89 12.46-6.07L12.46-6.07Q12.46-4.22 11.71-2.76Q10.97-1.29 9.60-0.54Q8.23 0.21 6.64 0.21L6.64 0.21Q4.92 0.21 3.57-0.62Q2.22-1.45 1.52-2.89Q0.82-4.32 0.82-5.93ZM2.48-5.90L2.48-5.90Q2.48-3.70 3.66-2.44Q4.85-1.17 6.63-1.17L6.63-1.17Q8.45-1.17 9.62-2.45Q10.80-3.73 10.80-6.08L10.80-6.08Q10.80-7.56 10.30-8.67Q9.79-9.78 8.83-10.39Q7.86-11.00 6.66-11.00L6.66-11.00Q4.95-11.00 3.71-9.82Q2.48-8.65 2.48-5.90Z" transform="translate(22.677734375 66.3896484375) " fill="rgb(24, 141, 193)" stroke="rgb(24, 141, 193)" stroke-width="0.028" data-glyph-w="13.22314453125" data-glyph-h="18.9921875" data-glyph-ascender="15.3896484375" data-glyph-descender="-3.6025390625"></path><path d="M0.76-3.91L0.76-3.91L2.28-4.04Q2.39-3.13 2.78-2.54Q3.18-1.96 4.01-1.60Q4.84-1.24 5.88-1.24L5.88-1.24Q6.80-1.24 7.50-1.51Q8.21-1.78 8.55-2.26Q8.90-2.74 8.90-3.30L8.90-3.30Q8.90-3.88 8.57-4.30Q8.23-4.73 7.47-5.02L7.47-5.02Q6.98-5.21 5.30-5.62Q3.63-6.02 2.96-6.38L2.96-6.38Q2.08-6.83 1.66-7.51Q1.23-8.18 1.23-9.02L1.23-9.02Q1.23-9.94 1.75-10.75Q2.27-11.55 3.28-11.96Q4.28-12.38 5.51-12.38L5.51-12.38Q6.86-12.38 7.90-11.94Q8.93-11.50 9.49-10.66Q10.04-9.81 10.09-8.74L10.09-8.74L8.54-8.62Q8.42-9.78 7.70-10.37Q6.98-10.96 5.58-10.96L5.58-10.96Q4.12-10.96 3.45-10.42Q2.78-9.89 2.78-9.13L2.78-9.13Q2.78-8.48 3.25-8.05L3.25-8.05Q3.72-7.63 5.68-7.18Q7.65-6.74 8.38-6.41L8.38-6.41Q9.44-5.92 9.94-5.17Q10.45-4.42 10.45-3.44L10.45-3.44Q10.45-2.47 9.89-1.61Q9.34-0.75 8.30-0.27Q7.25 0.21 5.95 0.21L5.95 0.21Q4.30 0.21 3.18-0.27Q2.07-0.76 1.43-1.72Q0.80-2.69 0.76-3.91Z" transform="translate(35.90087890625 66.3896484375) " fill="rgb(24, 141, 193)" stroke="rgb(24, 141, 193)" stroke-width="0.028" data-glyph-w="11.3388671875" data-glyph-h="18.9921875" data-glyph-ascender="15.3896484375" data-glyph-descender="-3.6025390625"></path><path d="M2.97 0L1.36 0L1.36-12.17L2.97-12.17L2.97-7.17L9.30-7.17L9.30-12.17L10.91-12.17L10.91 0L9.30 0L9.30-5.74L2.97-5.74L2.97 0Z" transform="translate(47.23974609375 66.3896484375) " fill="rgb(24, 141, 193)" stroke="rgb(24, 141, 193)" stroke-width="0.028" data-glyph-w="12.27685546875" data-glyph-h="18.9921875" data-glyph-ascender="15.3896484375" data-glyph-descender="-3.6025390625"></path><path d="M10.43 0L1.34 0L1.34-12.17L10.14-12.17L10.14-10.73L2.96-10.73L2.96-7.01L9.69-7.01L9.69-5.58L2.96-5.58L2.96-1.44L10.43-1.44L10.43 0Z" transform="translate(59.5166015625 66.3896484375) " fill="rgb(24, 141, 193)" stroke="rgb(24, 141, 193)" stroke-width="0.028" data-glyph-w="11.3388671875" data-glyph-h="18.9921875" data-glyph-ascender="15.3896484375" data-glyph-descender="-3.6025390625"></path><path d="M2.84 0L1.29 0L1.29-12.17L2.95-12.17L9.34-2.61L9.34-12.17L10.88-12.17L10.88 0L9.23 0L2.84-9.56L2.84 0Z" transform="translate(70.85546875 66.3896484375) " fill="rgb(24, 141, 193)" stroke="rgb(24, 141, 193)" stroke-width="0.028" data-glyph-w="12.27685546875" data-glyph-h="18.9921875" data-glyph-ascender="15.3896484375" data-glyph-descender="-3.6025390625"></path><path d="M10.58-4.77L7.01-4.77L7.01-6.20L12.16-6.21L12.16-1.69Q10.97-0.75 9.71-0.27Q8.45 0.21 7.12 0.21L7.12 0.21Q5.33 0.21 3.86-0.56Q2.40-1.33 1.65-2.78Q0.90-4.23 0.90-6.03L0.90-6.03Q0.90-7.80 1.65-9.34Q2.39-10.88 3.79-11.63Q5.18-12.38 7.00-12.38L7.00-12.38Q8.32-12.38 9.38-11.95Q10.45-11.52 11.06-10.76Q11.66-9.99 11.98-8.77L11.98-8.77L10.53-8.37Q10.25-9.30 9.84-9.83Q9.44-10.36 8.68-10.68Q7.93-11.00 7.01-11.00L7.01-11.00Q5.90-11.00 5.10-10.66Q4.29-10.33 3.80-9.78Q3.30-9.23 3.03-8.57L3.03-8.57Q2.56-7.45 2.56-6.13L2.56-6.13Q2.56-4.50 3.13-3.40Q3.69-2.31 4.76-1.78Q5.83-1.25 7.03-1.25L7.03-1.25Q8.08-1.25 9.07-1.65Q10.07-2.05 10.58-2.51L10.58-2.51L10.58-4.77Z" transform="translate(83.13232421875 66.3896484375) " fill="rgb(24, 141, 193)" stroke="rgb(24, 141, 193)" stroke-width="0.028" data-glyph-w="13.22314453125" data-glyph-h="18.9921875" data-glyph-ascender="15.3896484375" data-glyph-descender="-3.6025390625"></path><path d="M5.89 0L1.25 0L1.25-12.17L5.81-12.17Q7.21-12.17 8.05-11.80Q8.89-11.43 9.37-10.66Q9.84-9.89 9.84-9.06L9.84-9.06Q9.84-8.28 9.42-7.59Q9.00-6.90 8.14-6.47L8.14-6.47Q9.25-6.15 9.84-5.37Q10.43-4.59 10.43-3.53L10.43-3.53Q10.43-2.67 10.07-1.94Q9.71-1.20 9.18-0.81Q8.65-0.41 7.85-0.20Q7.05 0 5.89 0L5.89 0ZM2.86-10.73L2.86-7.06L5.49-7.06Q6.56-7.06 7.02-7.20L7.02-7.20Q7.64-7.38 7.95-7.80Q8.26-8.23 8.26-8.87L8.26-8.87Q8.26-9.47 7.97-9.93Q7.68-10.39 7.14-10.56Q6.60-10.73 5.29-10.73L5.29-10.73L2.86-10.73ZM2.86-5.62L2.86-1.44L5.89-1.44Q6.67-1.44 6.98-1.49L6.98-1.49Q7.54-1.59 7.91-1.83Q8.28-2.06 8.52-2.50Q8.77-2.95 8.77-3.53L8.77-3.53Q8.77-4.21 8.42-4.71Q8.07-5.21 7.45-5.42Q6.83-5.62 5.67-5.62L5.67-5.62L2.86-5.62Z" transform="translate(96.35546875 66.3896484375) " fill="rgb(24, 141, 193)" stroke="rgb(24, 141, 193)" stroke-width="0.028" data-glyph-w="11.3388671875" data-glyph-h="18.9921875" data-glyph-ascender="15.3896484375" data-glyph-descender="-3.6025390625"></path><path d="M1.69 0L-0.02 0L4.65-12.17L6.38-12.17L11.36 0L9.53 0L8.11-3.69L3.02-3.69L1.69 0ZM4.82-8.57L3.49-5.00L7.61-5.00L6.34-8.37Q5.76-9.90 5.48-10.89L5.48-10.89Q5.25-9.72 4.82-8.57L4.82-8.57Z" transform="translate(107.6943359375 66.3896484375) " fill="rgb(24, 141, 193)" stroke="rgb(24, 141, 193)" stroke-width="0.028" data-glyph-w="11.3388671875" data-glyph-h="18.9921875" data-glyph-ascender="15.3896484375" data-glyph-descender="-3.6025390625"></path><path d="M0.82-5.93L0.82-5.93Q0.82-8.96 2.45-10.67Q4.08-12.38 6.65-12.38L6.65-12.38Q8.33-12.38 9.69-11.58Q11.04-10.77 11.75-9.33Q12.46-7.89 12.46-6.07L12.46-6.07Q12.46-4.22 11.71-2.76Q10.97-1.29 9.60-0.54Q8.23 0.21 6.64 0.21L6.64 0.21Q4.92 0.21 3.57-0.62Q2.22-1.45 1.52-2.89Q0.82-4.32 0.82-5.93ZM2.48-5.90L2.48-5.90Q2.48-3.70 3.66-2.44Q4.85-1.17 6.63-1.17L6.63-1.17Q8.45-1.17 9.62-2.45Q10.80-3.73 10.80-6.08L10.80-6.08Q10.80-7.56 10.30-8.67Q9.79-9.78 8.83-10.39Q7.86-11.00 6.66-11.00L6.66-11.00Q4.95-11.00 3.71-9.82Q2.48-8.65 2.48-5.90Z" transform="translate(119.033203125 66.3896484375) " fill="rgb(24, 141, 193)" stroke="rgb(24, 141, 193)" stroke-width="0.028" data-glyph-w="13.22314453125" data-glyph-h="18.9921875" data-glyph-ascender="15.3896484375" data-glyph-descender="-3.6025390625"></path><path d="M2.81 0L1.26 0L1.26-12.17L3.69-12.17L6.57-3.55Q6.96-2.35 7.15-1.75L7.15-1.75Q7.35-2.42 7.79-3.70L7.79-3.70L10.71-12.17L12.87-12.17L12.87 0L11.32 0L11.32-10.19L7.79 0L6.33 0L2.81-10.36L2.81 0Z" transform="translate(132.25634765625 66.3896484375) " fill="rgb(24, 141, 193)" stroke="rgb(24, 141, 193)" stroke-width="0.028" data-glyph-w="14.1611328125" data-glyph-h="18.9921875" data-glyph-ascender="15.3896484375" data-glyph-descender="-3.6025390625"></path><path d="M3.20 0L1.59 0L1.59-12.17L3.20-12.17L3.20 0Z" transform="translate(146.41748046875 66.3896484375) " fill="rgb(24, 141, 193)" stroke="rgb(24, 141, 193)" stroke-width="0.028" data-glyph-w="4.72314453125" data-glyph-h="18.9921875" data-glyph-ascender="15.3896484375" data-glyph-descender="-3.6025390625"></path><path d="M2.84 0L1.29 0L1.29-12.17L2.95-12.17L9.34-2.61L9.34-12.17L10.88-12.17L10.88 0L9.23 0L2.84-9.56L2.84 0Z" transform="translate(151.140625 66.3896484375) " fill="rgb(24, 141, 193)" stroke="rgb(24, 141, 193)" stroke-width="0.028" data-glyph-w="12.27685546875" data-glyph-h="18.9921875" data-glyph-ascender="15.3896484375" data-glyph-descender="-3.6025390625"></path><path d="M10.58-4.77L7.01-4.77L7.01-6.20L12.16-6.21L12.16-1.69Q10.97-0.75 9.71-0.27Q8.45 0.21 7.12 0.21L7.12 0.21Q5.33 0.21 3.86-0.56Q2.40-1.33 1.65-2.78Q0.90-4.23 0.90-6.03L0.90-6.03Q0.90-7.80 1.65-9.34Q2.39-10.88 3.79-11.63Q5.18-12.38 7.00-12.38L7.00-12.38Q8.32-12.38 9.38-11.95Q10.45-11.52 11.06-10.76Q11.66-9.99 11.98-8.77L11.98-8.77L10.53-8.37Q10.25-9.30 9.84-9.83Q9.44-10.36 8.68-10.68Q7.93-11.00 7.01-11.00L7.01-11.00Q5.90-11.00 5.10-10.66Q4.29-10.33 3.80-9.78Q3.30-9.23 3.03-8.57L3.03-8.57Q2.56-7.45 2.56-6.13L2.56-6.13Q2.56-4.50 3.13-3.40Q3.69-2.31 4.76-1.78Q5.83-1.25 7.03-1.25L7.03-1.25Q8.08-1.25 9.07-1.65Q10.07-2.05 10.58-2.51L10.58-2.51L10.58-4.77Z" transform="translate(163.41748046875 66.3896484375) " fill="rgb(24, 141, 193)" stroke="rgb(24, 141, 193)" stroke-width="0.028" data-glyph-w="13.22314453125" data-glyph-h="18.9921875" data-glyph-ascender="15.3896484375" data-glyph-descender="-3.6025390625"></path></g></svg></g>
        </g>
  </svg>